<?xml version="1.0" encoding="UTF-8" standalone="no"?>
<svg xmlns:rdf="http://www.w3.org/1999/02/22-rdf-syntax-ns#" xmlns="http://www.w3.org/2000/svg" height="10.714mm" width="112.87mm" version="1.1" xmlns:cc="http://creativecommons.org/ns#" xmlns:dc="http://purl.org/dc/elements/1.1/" viewBox="0 0 399.94066 37.962627">
 <rect style="color-rendering:auto;color:#000000;isolation:auto;mix-blend-mode:normal;shape-rendering:auto;solid-color:#000000;stroke:#31343d;image-rendering:auto;stroke-width:.10577;fill:#f2f2f2" rx="2.3022" ry="4.9822" height="30.77" width="392.75" y="3.5962" x="3.5932"/>
 <g transform="matrix(.67756 0 0 .67756 -176.65 -54.317)">
  <path style="color-rendering:auto;color:#000000;isolation:auto;mix-blend-mode:normal;shape-rendering:auto;solid-color:#000000;image-rendering:auto;stroke-width:0;fill:#00ae41" d="m289.85 93.447c-5.727-.04352-11.258 3.5716-13.489 8.8515-2.3711 5.2784-1.2036 11.873 2.8286 16.023 3.9393 4.2348 10.467 5.7354 15.859 3.634 5.5262-2.0093 9.4863-7.5931 9.5264-13.477.19834-5.8306-3.4662-11.532-8.8386-13.8-1.8543-.80699-3.866-1.2119-5.8871-1.2304z"/>
  <g style="fill:#31343d" transform="matrix(.014242 .0011635 -.0011635 .014242 280.68 100.54)">
   <path style="fill:#31343d" d="m465 950c-3-5 17-83 45-172 29-90 65-203 80-253 128-405 154-483 166-502 13-20 23-23 83-23 46 0 70 4 73 13 7 17-271 908-290 930-11 13-31 17-83 17-37 0-71-4-74-10z"/>
   <path style="fill:#31343d" d="m255 788c-27-17-75-45-105-61-30-17-73-42-95-56l-40-27-3-91-3-91 33-25c45-32 463-267 477-267 15 0 15 1-15 101-15 49-36 97-48 108s-77 52-146 91-129 75-133 79 33 31 83 60c49 29 94 60 99 69 11 21-25 142-42 142-7 0-34-15-62-32z"/>
   <path style="fill:#31343d" d="m840 803c0-30 56-180 73-197 12-12 79-55 150-95 70-40 127-76 127-79 0-4-24-20-53-36-94-53-137-86-137-107 0-27 30-118 42-125 10-6 273 141 300 169 26 25 26 177 1 199-34 29-474 278-492 278-6 0-11-3-11-7z"/>
  </g>
 </g>
 <g transform="translate(-243.53 -174.98)">
  <path d="m277.49 199.56v-11.538h2.4212v9.3925h4.7125v2.145h-7.1338z"/>
  <path d="m289.22 199.8q-.91 0-1.6575-.2925-.73125-.2925-1.2512-.82875-.50375-.53625-.69875-1.2675l2.0475-.43875q.1625.50375.585.79625t1.0075.2925q.5525 0 .91-.24375t.3575-.66625q0-.3575-.325-.585-.30875-.24375-1.04-.37375l-.455-.0812q-1.3975-.24375-2.1288-.91-.715-.66625-.715-1.69 0-.8125.4225-1.43.4225-.63375 1.17-.99125t1.7225-.3575q.86125 0 1.56.2925.715.27625 1.1862.79625.47125.52.65 1.2512l-2.0312.4225q-.1625-.4875-.53625-.76375-.3575-.27625-.845-.27625-.50375 0-.82875.24375t-.325.6175q0 .325.30875.5525.325.21125 1.0888.34125l.455.0812q1.3812.24375 2.1125.92625.73125.66625.73125 1.7062 0 .63375-.26 1.1538-.24375.52-.715.91t-1.105.60125-1.3975.21125z"/>
  <path d="m298.23 199.8q-.95875 0-1.7712-.34125-.8125-.34125-1.4138-.9425-.60125-.6175-.9425-1.4462-.325-.82875-.325-1.8038 0-.975.34125-1.7875.34125-.82875.9425-1.4462.6175-.6175 1.43-.95875.82875-.34125 1.8038-.34125.95875 0 1.7712.34125.8125.34125 1.4138.95875.60125.60125.92625 1.43.34125.8125.34125 1.7875t-.34125 1.8038q-.34125.82875-.95875 1.4462-.60125.6175-1.43.95875-.8125.34125-1.7875.34125zm.0325-2.0475q.6175 0 1.105-.325t.76375-.8775q.2925-.56875.2925-1.2838 0-.715-.2925-1.2675-.27625-.56875-.76375-.89375t-1.105-.325-1.105.325-.78.89375q-.27625.5525-.27625 1.2675t.27625 1.2838q.2925.5525.78.8775t1.105.325z"/>
  <path d="m307.31 199.8q-.91 0-1.6575-.2925-.73125-.2925-1.2512-.82875-.50375-.53625-.69875-1.2675l2.0475-.43875q.1625.50375.585.79625t1.0075.2925q.5525 0 .91-.24375t.3575-.66625q0-.3575-.325-.585-.30875-.24375-1.04-.37375l-.455-.0812q-1.3975-.24375-2.1288-.91-.715-.66625-.715-1.69 0-.8125.4225-1.43.4225-.63375 1.17-.99125t1.7225-.3575q.86125 0 1.56.2925.715.27625 1.1862.79625.47125.52.65 1.2512l-2.0312.4225q-.1625-.4875-.53625-.76375-.3575-.27625-.845-.27625-.50375 0-.82875.24375t-.325.6175q0 .325.30875.5525.325.21125 1.0888.34125l.455.0812q1.3812.24375 2.1125.92625.73125.66625.73125 1.7062 0 .63375-.26 1.1538-.24375.52-.715.91t-1.105.60125-1.3975.21125z"/>
 </g>
 <g transform="translate(-243.53 -174.98)">
  <path d="m347.52 199.64v-10.909h6.5412v1.1719h-5.2202v3.6861h4.7301v1.1719h-4.7301v4.8793h-1.321z"/>
  <path d="m360.8 196.3v-4.8366h1.2571v8.1818h-1.2571v-1.385h-.0852q-.28765.62323-.89489 1.06-.60725.43146-1.5341.43146-.76705 0-1.3636-.33558-.59659-.34091-.9375-1.0227-.34091-.68714-.34091-1.7312v-5.1989h1.2571v5.1136q0 .89488.50071 1.4276.50604.53267 1.2891.53267.46875 0 .95348-.2397.49005-.2397.82031-.73508.33558-.49539.33558-1.2624z"/>
  <path d="m365.6 194.72v4.9219h-1.2571v-8.1818h1.2145v1.2784h.10654q.28764-.62323.87358-1.0014.58593-.38352 1.5128-.38352.83097 0 1.4542.3409.62323.33559.96946 1.0227.34624.68182.34624 1.7258v5.1989h-1.2571v-5.1136q0-.96413-.50071-1.5021-.50071-.54332-1.3743-.54332-.60191 0-1.076.26101-.46875.261-.74041.76171t-.27166 1.2145z"/>
  <path d="m376.22 199.81q-1.0227 0-1.8058-.51669-.78302-.52201-1.2251-1.4702-.44212-.95348-.44212-2.2532 0-1.2891.44212-2.2372.44212-.94815 1.2305-1.4648.78835-.51669 1.8217-.51669.79901 0 1.2624.26633.46875.26101.71378.59659.25035.33026.38885.54333h.10653v-4.027h1.2571v10.909h-1.2145v-1.2571h-.14915q-.1385.22372-.39418.56463-.25568.33558-.72976.60191-.47407.26101-1.2624.26101zm.17045-1.1293q.75639 0 1.2784-.39417.52202-.39951.79368-1.1026.27166-.70845.27166-1.6353 0-.91619-.26634-1.6033-.26633-.69247-.78835-1.076-.52201-.38885-1.2891-.38885-.79901 0-1.3317.41015-.52734.40483-.79368 1.1026-.261.69247-.261 1.5554 0 .87358.26633 1.5874.27166.70845.79901 1.1293.53267.41548 1.321.41548z"/>
  <path d="m385.88 199.81q-1.1825 0-2.0401-.52201-.85227-.52735-1.3157-1.4702-.4581-.94816-.4581-2.2053t.4581-2.2159q.46342-.96413 1.2891-1.5021.83097-.54332 1.9389-.54332.6392 0 1.2624.21306.62322.21307 1.1346.69248.51136.47407.81498 1.2571.30362.78302.30362 1.9283v.53268h-6.3068v-1.0866h5.0284q0-.69247-.27699-1.2358-.27166-.54332-.7777-.8576-.50071-.31427-1.1825-.31427-.75107 0-1.2997.37287-.54332.36754-.83629.9588-.29297.59127-.29297 1.2678v.72443q0 .92685.3196 1.5714.32493.6392.90022.97479.57528.33025 1.337.33025.49538 0 .89489-.13849.40483-.14382.6978-.42614.29296-.28764.45277-.71378l1.2145.34091q-.19176.6179-.64453 1.0866-.45277.46342-1.1186.72443-.66583.25568-1.4968.25568z"/>
  <path d="m394.27 199.81q-1.0227 0-1.8058-.51669-.78303-.52201-1.2251-1.4702-.44212-.95348-.44212-2.2532 0-1.2891.44212-2.2372.44211-.94815 1.2305-1.4648.78836-.51669 1.8217-.51669.799 0 1.2624.26633.46875.26101.71377.59659.25036.33026.38885.54333h.10654v-4.027h1.2571v10.909h-1.2145v-1.2571h-.14915q-.13849.22372-.39417.56463-.25568.33558-.72976.60191-.47408.26101-1.2624.26101zm.17045-1.1293q.7564 0 1.2784-.39417.52202-.39951.79368-1.1026.27166-.70845.27166-1.6353 0-.91619-.26633-1.6033-.26634-.69247-.78835-1.076-.52202-.38885-1.2891-.38885-.799 0-1.3317.41015-.52734.40483-.79368 1.1026-.26101.69247-.26101 1.5554 0 .87358.26634 1.5874.27166.70845.799 1.1293.53267.41548 1.321.41548z"/>
 </g>
 <path style="fill:#00ae41;image-rendering:optimizeQuality;shape-rendering:geometricPrecision" d="m88.99 21.773 7.2168-7.239c1.2028-1.2028 3.0515.64595 1.8487 1.8487l-8.1523 8.1523c-.5123.5123-1.3364.5123-1.8487 0l-2.9847-3.007c-1.2028-1.2028.62368-3.0515 1.8487-1.8265l2.0715 2.0715z"/>
 <g transform="translate(-243.53 -174.98)">
  <path d="m546.32 188.73h1.5767l3.7074 9.0554h.12784l3.7074-9.0554h1.5767v10.909h-1.2358v-8.2884h-.10653l-3.4091 8.2884h-1.1932l-3.4091-8.2884h-.10654v8.2884h-1.2358v-10.909z"/>
  <path d="m560.97 188.73v10.909h-1.321v-10.909h1.321z"/>
  <path d="m563.01 189.9v-1.1719h8.1818v1.1719h-3.4304v9.7372h-1.321v-9.7372h-3.4304z"/>
  <path d="m577.46 199.64v-10.909h1.321v9.7372h5.071v1.1719h-6.392z"/>
  <path d="m585.73 199.64v-8.1818h1.2571v8.1818h-1.2571zm.63921-9.5454q-.36755 0-.63388-.25036-.26101-.25035-.26101-.60191 0-.35157.26101-.60192.26633-.25036.63388-.25036.36754 0 .62855.25036.26633.25035.26633.60192 0 .35156-.26633.60191-.26101.25036-.62855.25036z"/>
  <path d="m592.59 199.81q-1.1506 0-1.9815-.54333-.83096-.54332-1.2784-1.4968t-.44744-2.1786q0-1.2464.4581-2.1999.46342-.95881 1.2891-1.4968.83096-.54332 1.9389-.54332.86293 0 1.5554.3196.69247.31961 1.1346.89489.44211.57528.54865 1.3423h-1.2571q-.14382-.55931-.6392-.99077-.49006-.43679-1.321-.43679-.73509 0-1.2891.38352-.54865.3782-.8576 1.0707-.30362.68715-.30362 1.614 0 .94816.2983 1.6513.30362.70313.85227 1.092.55398.38885 1.2997.38885.49005 0 .88956-.17046.3995-.17045.67649-.49006.27699-.3196.39417-.76704h1.2571q-.10654.72443-.52735 1.305-.41548.57529-1.1026.9162-.68181.33558-1.5874.33558z"/>
  <path d="m601.08 199.81q-1.1825 0-2.0401-.52202-.85227-.52734-1.3157-1.4702-.45809-.94815-.45809-2.2053 0-1.2571.45809-2.2159.46343-.96414 1.2891-1.5021.83096-.54332 1.9389-.54332.6392 0 1.2624.21307.62323.21307 1.1346.69247.51137.47408.81499 1.2571.30362.78303.30362 1.9283v.53267h-6.3068v-1.0866h5.0284q0-.69247-.27699-1.2358-.27166-.54333-.7777-.8576-.50071-.31428-1.1825-.31428-.75107 0-1.2997.37287-.54332.36754-.83629.95881-.29297.59126-.29297 1.2678v.72444q0 .92684.3196 1.5714.32493.63921.90021.97479.57529.33026 1.337.33026.49538 0 .89488-.1385.40483-.14382.6978-.42613.29297-.28765.45277-.71378l1.2145.34091q-.19176.61789-.64453 1.0866-.45277.46343-1.1186.72444-.66584.25568-1.4968.25568z"/>
  <path d="m607.64 194.72v4.9219h-1.2571v-8.1818h1.2145v1.2784h.10653q.28764-.62322.87358-1.0014.58594-.38352 1.5128-.38352.83097 0 1.4542.34091.62323.33558.96946 1.0227.34624.68182.34624 1.7258v5.1989h-1.2571v-5.1136q0-.96414-.50071-1.5021-.50071-.54333-1.3743-.54333-.60192 0-1.076.26101-.46875.26101-.74041.76172t-.27166 1.2145z"/>
  <path d="m620.96 193.29-1.1293.3196q-.10653-.28231-.31427-.54865-.20242-.27166-.55398-.44744t-.90021-.17578q-.75107 0-1.2518.34623-.49538.34091-.49538.86826 0 .46875.34091.74041t1.0653.45277l1.2145.29829q1.0973.26634 1.6353.81499.53799.54332.53799 1.4009 0 .70313-.40483 1.2571-.3995.55397-1.1186.87358-.7191.3196-1.6726.3196-1.2518 0-2.0721-.54333-.82031-.54332-1.0387-1.5874l1.1932-.2983q.17045.66051.64453.99077.4794.33025 1.2518.33025.87891 0 1.3956-.37287.52202-.37819.52202-.90554 0-.42613-.2983-.71377-.29829-.29297-.91619-.43679l-1.3636-.31961q-1.1239-.26633-1.6513-.82564-.52201-.56463-.52201-1.4116 0-.69247.38885-1.2251.39417-.53268 1.0707-.8363.68182-.30362 1.5448-.30362 1.2145 0 1.907.53267.6978.53267.99076 1.4062z"/>
  <path d="m626.45 199.81q-1.1825 0-2.0401-.52202-.85227-.52734-1.3157-1.4702-.4581-.94815-.4581-2.2053 0-1.2571.4581-2.2159.46342-.96414 1.2891-1.5021.83096-.54332 1.9389-.54332.6392 0 1.2624.21307.62322.21307 1.1346.69247.51136.47408.81498 1.2571.30362.78303.30362 1.9283v.53267h-6.3068v-1.0866h5.0284q0-.69247-.27699-1.2358-.27167-.54333-.7777-.8576-.50071-.31428-1.1825-.31428-.75107 0-1.2997.37287-.54332.36754-.83629.95881-.29297.59126-.29297 1.2678v.72444q0 .92684.3196 1.5714.32493.63921.90022.97479.57528.33026 1.337.33026.49538 0 .89489-.1385.40483-.14382.6978-.42613.29296-.28765.45276-.71378l1.2145.34091q-.19176.61789-.64453 1.0866-.45277.46343-1.1186.72444-.66583.25568-1.4968.25568z"/>
 </g>
 <path style="fill:#00ae41;image-rendering:optimizeQuality;shape-rendering:geometricPrecision" d="m287.24 21.773 7.2168-7.2391c1.2028-1.2028 3.0515.64598 1.8487 1.8488l-8.1523 8.1524c-.51229.5123-1.3364.5123-1.8487 0l-2.9847-3.007c-1.2028-1.2028.62366-3.0515 1.8487-1.8265l2.0715 2.0716z"/>
 <g transform="translate(-243.53 -174.98)">
  <path d="m435.31 199.64h-1.3849l4.0057-10.909h1.3636l4.0057 10.909h-1.385l-3.2599-9.1832h-.0852l-3.2599 9.1832zm.51136-4.2614h5.5824v1.1719h-5.5824v-1.1719z"/>
  <path d="m448.15 199.81q-1.1506 0-1.9815-.54333-.83097-.54332-1.2784-1.4968-.44744-.95348-.44744-2.1786 0-1.2464.45809-2.1999.46343-.95881 1.2891-1.4968.83096-.54333 1.9389-.54333.86292 0 1.5554.3196.69247.31961 1.1346.89489.44212.57528.54865 1.3423h-1.2571q-.14382-.5593-.6392-.99077-.49006-.43679-1.321-.43679-.73508 0-1.2891.38353-.54865.37819-.8576 1.0707-.30362.68715-.30362 1.614 0 .94815.2983 1.6513.30362.70313.85227 1.092.55398.38885 1.2997.38885.49006 0 .88956-.17046.39951-.17045.6765-.49005.27698-.31961.39417-.76705h1.2571q-.10653.72443-.52734 1.305-.41548.57529-1.1026.9162-.68182.33558-1.5874.33558z"/>
  <path d="m456.53 199.81q-1.1506 0-1.9815-.54333-.83097-.54332-1.2784-1.4968-.44745-.95348-.44745-2.1786 0-1.2464.4581-2.1999.46342-.95881 1.2891-1.4968.83097-.54333 1.9389-.54333.86293 0 1.5554.3196.69247.31961 1.1346.89489.44212.57528.54865 1.3423h-1.2571q-.14382-.5593-.63921-.99077-.49005-.43679-1.321-.43679-.73508 0-1.2891.38353-.54865.37819-.8576 1.0707-.30362.68715-.30362 1.614 0 .94815.29829 1.6513.30362.70313.85227 1.092.55398.38885 1.2997.38885.49006 0 .88956-.17046.3995-.17045.67649-.49005.27699-.31961.39418-.76705h1.2571q-.10653.72443-.52734 1.305-.41549.57529-1.1026.9162-.68182.33558-1.5874.33558z"/>
  <path d="m465.01 199.81q-1.1825 0-2.0401-.52202-.85227-.52734-1.3157-1.4702-.4581-.94815-.4581-2.2052 0-1.2571.4581-2.2159.46342-.96414 1.2891-1.5021.83097-.54333 1.9389-.54333.6392 0 1.2624.21307.62322.21307 1.1346.69247.51136.47408.81498 1.2571.30362.78303.30362 1.9283v.53267h-6.3068v-1.0866h5.0284q0-.69247-.27699-1.2358-.27166-.54333-.7777-.8576-.50071-.31428-1.1825-.31428-.75107 0-1.2997.37287-.54332.36755-.83629.95881t-.29297 1.2678v.72443q0 .92684.3196 1.5714.32493.63921.90022.97479.57528.33026 1.337.33026.49538 0 .89489-.1385.40483-.14382.6978-.42613.29296-.28765.45277-.71378l1.2145.34091q-.19176.6179-.64453 1.0866-.45277.46342-1.1186.72443-.66583.25568-1.4968.25568z"/>
  <path d="m476.11 193.29-1.1293.3196q-.10654-.28231-.31428-.54865-.20242-.27166-.55398-.44744t-.90021-.17578q-.75107 0-1.2518.34624-.49538.3409-.49538.86825 0 .46875.34091.74041t1.0653.45277l1.2145.2983q1.0973.26633 1.6353.81498.53799.54333.53799 1.4009 0 .70313-.40483 1.2571-.3995.55397-1.1186.87358-.71911.3196-1.6726.3196-1.2518 0-2.0721-.54333-.82031-.54332-1.0387-1.5874l1.1932-.2983q.17045.66051.64453.99077.4794.33025 1.2518.33025.87891 0 1.3956-.37287.52202-.37819.52202-.90553 0-.42614-.2983-.71378-.29829-.29297-.91619-.43679l-1.3636-.31961q-1.1239-.26633-1.6513-.82563-.52201-.56464-.52201-1.4116 0-.69247.38885-1.2251.39417-.53267 1.0707-.8363.68182-.30362 1.5448-.30362 1.2145 0 1.907.53267.6978.53267.99077 1.4062z"/>
  <path d="m483.96 193.29-1.1293.3196q-.10654-.28231-.31428-.54865-.20241-.27166-.55398-.44744-.35156-.17578-.90021-.17578-.75106 0-1.2518.34624-.49539.3409-.49539.86825 0 .46875.34091.74041t1.0653.45277l1.2145.2983q1.0973.26633 1.6353.81498.538.54333.538 1.4009 0 .70313-.40483 1.2571-.39951.55397-1.1186.87358-.71911.3196-1.6726.3196-1.2518 0-2.0721-.54333-.82032-.54332-1.0387-1.5874l1.1932-.2983q.17045.66051.64453.99077.4794.33025 1.2518.33025.8789 0 1.3956-.37287.52202-.37819.52202-.90553 0-.42614-.29829-.71378-.2983-.29297-.9162-.43679l-1.3636-.31961q-1.1239-.26633-1.6513-.82563-.52202-.56464-.52202-1.4116 0-.69247.38885-1.2251.39418-.53267 1.0707-.8363.68182-.30362 1.5447-.30362 1.2145 0 1.907.53267.6978.53267.99077 1.4062z"/>
  <path d="m486.02 199.64v-8.1818h1.2571v8.1818h-1.2571zm.6392-9.5454q-.36754 0-.63388-.25036-.261-.25035-.261-.60191 0-.35157.261-.60192.26634-.25036.63388-.25036t.62855.25036q.26634.25035.26634.60192 0 .35156-.26634.60191-.26101.25036-.62855.25036z"/>
  <path d="m489.73 199.64v-10.909h1.2571v4.027h.10653q.13849-.21307.38352-.54332.25036-.33558.71378-.59659.46875-.26634 1.2678-.26634 1.0334 0 1.8217.51669.78835.51669 1.2305 1.4648.44211.94815.44211 2.2372 0 1.2997-.44211 2.2532-.44212.94815-1.2251 1.4702-.78303.51669-1.8058.51669-.78835 0-1.2624-.26101-.47407-.26633-.72975-.60192-.25569-.34091-.39418-.56463h-.14915v1.2571h-1.2145zm1.2358-4.0909q0 .92684.27166 1.6353.27166.70313.79368 1.1026.52202.39418 1.2784.39418.78835 0 1.3157-.41549.53268-.42081.79901-1.1293.27166-.71378.27166-1.5874 0-.86293-.26633-1.5554-.26101-.6978-.79368-1.1026-.52735-.41016-1.3264-.41016-.76705 0-1.2891.38885-.52202.38353-.78836 1.076-.26633.68714-.26633 1.6033z"/>
  <path d="m500.13 188.73v10.909h-1.2571v-10.909h1.2571z"/>
  <path d="m505.85 199.81q-1.1825 0-2.0401-.52202-.85228-.52734-1.3157-1.4702-.4581-.94815-.4581-2.2052 0-1.2571.4581-2.2159.46342-.96414 1.2891-1.5021.83097-.54333 1.9389-.54333.63921 0 1.2624.21307.62323.21307 1.1346.69247.51136.47408.81499 1.2571.30362.78303.30362 1.9283v.53267h-6.3068v-1.0866h5.0284q0-.69247-.27699-1.2358-.27166-.54333-.7777-.8576-.50071-.31428-1.1825-.31428-.75106 0-1.2997.37287-.54333.36755-.83629.95881-.29297.59126-.29297 1.2678v.72443q0 .92684.3196 1.5714.32493.63921.90021.97479.57529.33026 1.337.33026.49539 0 .89489-.1385.40483-.14382.6978-.42613.29297-.28765.45277-.71378l1.2145.34091q-.19176.6179-.64453 1.0866-.45277.46342-1.1186.72443-.66584.25568-1.4968.25568z"/>
 </g>
 <path style="fill:#00ae41;image-rendering:optimizeQuality;shape-rendering:geometricPrecision" d="m176.39 21.773 7.2169-7.239c1.2028-1.2028 3.0515.64595 1.8487 1.8487l-8.1524 8.1523c-.5123.51236-1.3364.51236-1.8487 0l-2.9847-3.007c-1.2028-1.2028.62367-3.0515 1.8487-1.8265l2.0715 2.0715z"/>
</svg>
